<?xml version="1.0" encoding="UTF-8" standalone="no"?>
<!-- Created with Inkscape (http://www.inkscape.org/) -->

<svg
   xmlns:dc="http://purl.org/dc/elements/1.1/"
   xmlns:cc="http://creativecommons.org/ns#"
   xmlns:rdf="http://www.w3.org/1999/02/22-rdf-syntax-ns#"
   xmlns:svg="http://www.w3.org/2000/svg"
   xmlns="http://www.w3.org/2000/svg"
   version="1.1"
   width="16"
   height="80"
   id="rw3">
  <g
     transform="translate(-400.70611,-644.37502)"
     id="layer1">
    <g
       transform="matrix(0.18465991,0,0,0.19615886,327.72408,581.15868)"
       id="g4062">
      <path
         d="m 401.125,497.34375 c 0,42.6799 -2.01155,206.67235 2.78125,220.65625 10.98742,5.24891 21.54283,6.34827 34.625,6.375 0.0107,2e-5 0.0206,-2e-5 0.0312,0 13.08217,-0.0267 23.63758,-1.12609 34.625,-6.375 4.7928,-13.9839 2.78125,-177.97635 2.78125,-220.65625 l -7.5625,0 0,17.15625 c -5.7034,5.2789 -14.5625,19.72675 -14.5625,28.21875 l 0,32.5 1.875,3.21875 0,40.5 -17.15625,0.0312 -0.0312,0 -17.15625,-0.0312 0,-40.5 1.875,-3.21875 0,-32.5 c 0,-8.492 -8.8591,-22.93985 -14.5625,-28.21875 l 0,-17.15625 -7.5625,0 z"
         id="path4003"
         style="fill:#008000;stroke:none" />
      <path
         d="m 438.54687,328 c -10.8854,0 -37.4375,40.528 -37.4375,169.375 l 7.5625,0 0,17.125 c 5.7034,5.2789 14.5625,19.72675 14.5625,28.21875 l 0,32.5 -1.875,3.21875 0,40.53125 17.1875,0 17.1875,0 0,-40.53125 -1.875,-3.21875 0,-32.5 c 0,-8.492 8.8591,-22.93985 14.5625,-28.21875 l 0,-17.125 7.5625,0 C 475.98437,368.528 449.43227,328 438.54687,328 z"
         id="path3959"
         style="fill:#cccccc;stroke:none" />
      <path
         d="m 438.53125,424.125 c -8.40165,0.003 -22.39037,1.19498 -24.65625,5.96875 l -0.15625,23 4.875,0 0,62.21875 19.9375,0 0.0312,0 19.9375,0 0,-62.21875 4.875,0 -0.15625,-23 c -2.26588,-4.77377 -16.2546,-5.96602 -24.65625,-5.96875 -0.01,0 -0.0215,0 -0.0312,0 z"
         id="path3955"
         style="fill:#ffffff;stroke:none" />
      <path
         d="m 438.54682,660.63397 c -15.5512,0 -28.1562,12.605 -28.1562,28.1563 0,15.5512 12.605,28.1562 28.1562,28.1562 15.5513,0 28.1563,-12.605 28.1563,-28.1562 0,-15.5513 -12.605,-28.1563 -28.1563,-28.1563 z m 0,6.9375 c 11.7158,0 21.2188,9.503 21.2188,21.2188 0,11.7157 -9.503,21.2187 -21.2188,21.2187 -11.7157,0 -21.2187,-9.503 -21.2187,-21.2187 0,-11.7158 9.503,-21.2188 21.2187,-21.2188 z"
         id="path3963"
         style="fill:#ffcc00;fill-opacity:1;stroke:none" />
      <path
         d="m 428.59375,703.1875 0,-12.28125 0,-5.4375 0,-11.5625 5.4375,0 0,11.5625 4.46875,0 0.0937,0 4.46875,0 0,-11.5625 5.4375,0 0,11.5625 0,5.4375 0,12.28125 -5.4375,0 0,-12.28125 -4.46875,0 -0.0937,0 -4.46875,0 0,12.28125 -5.4375,0 z"
         id="rect3980"
         style="fill:#ffffff;fill-opacity:1;stroke:none" />
      <path
         d="m 411.92192,527.42135 c 3.56409,0 8.67852,10.92996 8.67852,16.23222 l 0,28.03374 c 0,1.81485 -1.37547,1.8 -2.53926,1.8 -1.31589,-1.76445 -3.57066,-3.0834 -6.13926,-3.15522 -2.5686,-0.072 -4.7025,1.18908 -6.13926,3.15522 0,0 -2.53935,-0.0738 -2.53935,-1.8 l 0,-28.03374 c 0,-5.78664 5.11452,-16.23222 8.67861,-16.23222 z"
         id="path4038"
         style="fill:#ff0000;fill-opacity:1;stroke:none" />
      <path
         d="m 465.17192,527.42135 c 3.56409,0 8.67852,10.92996 8.67852,16.23222 l 0,28.03374 c 0,1.81485 -1.37547,1.8 -2.53926,1.8 -1.31589,-1.76445 -3.57066,-3.0834 -6.13926,-3.15522 -2.5686,-0.072 -4.7025,1.18908 -6.13926,3.15522 0,0 -2.53935,-0.0738 -2.53935,-1.8 l 0,-28.03374 c 0,-5.78664 5.11452,-16.23222 8.67861,-16.23222 z"
         id="path4040"
         style="fill:#00c800;fill-opacity:1;stroke:none" />
      <path
         d="m 404.40625,462.59375 a 1.2196627,1.2196627 0 0 0 -0.0937,0.0312 1.2196627,1.2196627 0 0 0 -1.03125,1.21875 l 0,8.65625 a 1.2196627,1.2196627 0 0 0 0.96875,1.1875 l 30.1875,7.3125 0.0312,0 c 2.91395,0.77617 5.13983,0.7438 8.34375,-0.0312 l 30.03125,-7.28125 A 1.2196627,1.2196627 0 0 0 473.8125,472.5 l 0,-8.65625 a 1.2196627,1.2196627 0 0 0 -1.5,-1.1875 l -30,7.28125 a 1.2196627,1.2196627 0 0 0 -0.0312,0 c -2.80015,0.7503 -4.58558,0.75971 -7.1875,0.0625 a 1.2196627,1.2196627 0 0 0 -0.0312,0 l -30.28125,-7.34375 a 1.2196627,1.2196627 0 0 0 -0.375,-0.0625 z m -1.09375,112.875 a 1.25636,1.25636 0 0 0 -1.0625,1.25 l 0,8.9375 a 1.25636,1.25636 0 0 0 0.96875,1.21875 l 31.125,7.53125 0.0312,0 c 3.00162,0.79952 5.29343,0.76712 8.59375,-0.0312 l 30.9375,-7.5 a 1.25636,1.25636 0 0 0 0.96875,-1.21875 l 0,-8.9375 A 1.25636,1.25636 0 0 0 473.34375,575.5 L 442.4375,583 a 1.25636,1.25636 0 0 0 -0.0312,0 c -2.8844,0.77288 -4.72604,0.78069 -7.40625,0.0625 a 1.25636,1.25636 0 0 0 -0.0312,0 L 403.78125,575.5 a 1.25636,1.25636 0 0 0 -0.46875,-0.0312 z"
         id="path4024"
         style="fill:#999999;fill-opacity:1;stroke:none" />
      <path
         d="M 8,-1.15625 C 6.7417436,-1.15625 5.8278151,-0.31678708 4.875,1 3.9221849,2.3167871 2.9646874,4.2688157 2.09375,7 0.35187512,12.462369 -1.0625,21.102169 -1.0625,34.1875 c 0,4.288314 -0.1155532,14.724081 -0.09375,24.4375 0.010902,4.85671 0.05255,9.534359 0.15625,13.1875 0.05185,1.82657 0.13118274,3.404326 0.21875,4.625 0.0875673,1.220674 0.12305937,1.954486 0.375,2.65625 a 1.1525583,1.1525583 0 0 0 0.625,0.6875 c 2.5216134,1.150021 4.9565904,1.36949 7.78125,1.375 2.824657,-0.0055 5.259635,-0.224979 7.78125,-1.375 a 1.1525583,1.1525583 0 0 0 0.625,-0.6875 c 0.251941,-0.701764 0.287433,-1.435576 0.375,-2.65625 C 16.86882,75.216826 16.94815,73.63907 17,71.8125 17.1037,68.159359 17.145348,63.48171 17.15625,58.625 17.178053,48.911581 17.0625,38.475814 17.0625,34.1875 17.0625,21.102169 15.648125,12.462369 13.90625,7 13.035313,4.2688157 12.077815,2.3167871 11.125,1 10.172185,-0.31678709 9.2582564,-1.15625 8,-1.15625 z M 8,0 c 2.301307,0 7.90625,8.1824302 7.90625,34.1875 0,8.614045 0.419507,41.708892 -0.59375,44.53125 -1.070574,0.488252 -2.127491,0.776733 -3.21875,0.96875 L 9.5625,53.625 9.125,53.71875 l 2.5,26.0625 C 10.488384,79.946285 9.3120905,79.997443 8,80 6.6751307,79.997416 5.4903892,79.918909 4.34375,79.75 l 2.5,-26.03125 -0.4375,-0.125 L 3.875,79.6875 C 2.7943975,79.495114 1.7483512,79.202568 0.6875,78.71875 -0.32575665,75.896392 0.09375,42.801545 0.09375,34.1875 0.09375,8.1824302 5.6986931,0 8,0 z M 8,0 C 7.875772,0 7.78125,0.10015524 7.78125,0.21875 l 0,28.53125 c 0.1470203,0.01366 0.2873318,0.01399 0.4375,0 l 0,-28.53125 C 8.21875,0.10015524 8.1242258,0 8,0 z m -0.21875,31 0,20.5625 c 0.1468829,0.01332 0.2875897,0.04473 0.4375,0.03125 L 8.21875,31 c -0.1498004,0.01162 -0.2919723,0.0098 -0.4375,0 z"
         transform="matrix(4.7300949,0,0,4.9546876,400.70611,327.99998)"
         id="path4132"
         style="fill:#000000;stroke:none" />
    </g>
  </g>
</svg>
